<svg width="327" height="327" viewBox="0 0 327 327" fill="none" xmlns="http://www.w3.org/2000/svg">
<path d="M327 147.052H246.797L320.975 116.518L308.435 85.9841L233.443 116.844L290.766 59.5212L267.479 36.2338L210.156 93.5565L241.016 18.5647L210.482 6.0254L179.948 80.2029V0H147.052V80.1215L116.518 6.0254L85.9841 18.5647L116.844 93.5565L59.5212 36.2338L36.2338 59.5212L93.5565 116.844L18.5647 85.9841L6.0254 116.518L80.2029 147.052H0V179.948H80.1215L6.0254 210.482L18.5647 241.016L93.5565 210.075L36.2338 267.479L59.5212 290.766L116.925 233.443L85.9841 308.435L116.518 320.975L147.052 246.878V327H179.948V246.878L210.482 320.975L241.016 308.435L210.075 233.443L267.479 290.766L290.766 267.479L233.443 210.075L308.435 241.016L320.975 210.482L246.878 179.948H327V147.052Z" fill="#000C49"/>
</svg>
