<svg width="16" height="16" viewBox="0 0 16 16" fill="none" xmlns="http://www.w3.org/2000/svg">
<g clip-path="url(#clip0_31_457)">
<path d="M8 0C3.5805 0 0 3.5805 0 8C0 12.4195 3.5805 16 8 16C12.4195 16 16 12.4195 16 8C16 3.5805 12.4195 0 8 0ZM4.9115 2.9195C5.2635 2.9195 5.544 3.206 5.544 3.5495C5.544 3.8935 5.2635 4.182 4.9115 4.182C4.5655 4.18 4.2815 3.8985 4.2815 3.5495C4.2815 3.201 4.563 2.9195 4.9115 2.9195ZM4.432 4.9425H5.3935V11.638H4.432V4.9425ZM6.8075 4.9425H9.406C11.88 4.9425 12.9685 6.713 12.9685 8.294C12.9685 10.0135 11.625 11.6435 9.419 11.6435H6.807L6.8075 4.9425ZM7.768 5.8125V10.776H9.2995C11.482 10.776 11.982 9.12 11.982 8.294C11.982 6.9505 11.1255 5.8125 9.25 5.8125H7.768Z" fill="#343A40"/>
</g>
<defs>
<clipPath id="clip0_31_457">
<rect width="16" height="16" fill="white"/>
</clipPath>
</defs>
</svg>
